<svg class="jens-johnson-apis-md-svg-img" height="20vh" viewBox="0 0 1222 712" version="1.1" xmlns="http://www.w3.org/2000/svg" xmlns:xlink="http://www.w3.org/1999/xlink">
    <title>Jens Johnson: API Vision</title>
    <defs>
        <linearGradient x1="50%" y1="0%" x2="50%" y2="100%">
            <stop stop-color="#60086D" offset="0%" />
            <stop stop-color="#0065D5" offset="100%" />
        </linearGradient>
        <linearGradient x1="50%" y1="0%" x2="50%" y2="99.7579081%">
            <stop stop-color="#0065D5" offset="0%" />
            <stop stop-color="#60086D" offset="100%" />
        </linearGradient>
        <linearGradient x1="72.5531075%" y1="100%" x2="72.5531075%" y2="50%">
            <stop stop-color="#000000" offset="0%" />
            <stop stop-color="#60086D" offset="100%" />
        </linearGradient>
        <linearGradient x1="0%" y1="50%" x2="100%" y2="50%">
            <stop stop-color="#000000" offset="0%" />
            <stop stop-color="#0065D5" offset="100%" />
        </linearGradient>
        <linearGradient x1="0%" y1="50%" x2="66.489527%" y2="50%">
            <stop stop-color="#000000" offset="0%" />
            <stop stop-color="#60086D" offset="100%" />
        </linearGradient>
        <linearGradient x1="-11.7375328%" y1="110.881292%" x2="91.6646577%" y2="7.95333013%">
            <stop stop-color="#000000" offset="0%" />
            <stop stop-color="#005ABD" offset="100%" />
            <stop stop-color="#0065D5" offset="100%" />
        </linearGradient>
    </defs>
    <g stroke-width="5">
        <circle stroke="#0065D5" opacity="0.573750814" cx="191" cy="33" r="30.5" />
        <path stroke="#0065D5" opacity="0.147901263" stroke-linecap="round" d="M563.657322,252 C524.095682,163.495898 485.234704,106.829231 447.074386,82 C419.185172,63.8537214 371.961548,49.8892858 305.403514,40.1066932 M273.957679,36.1588915 C264.759521,35.1242401 248.106961,33.4046096 224,31" />
        <circle stroke="#0065D5" opacity="0.573750814" cx="158" cy="211" r="30.5" />
        <circle stroke="#A0A0A0" opacity="0.401594616" cx="211" cy="130" r="30.5" />
        <circle stroke="#A0A0A0" opacity="0.401594616" cx="145" cy="308" r="30.5" />
        <circle stroke="#A0A0A0" opacity="0.401594616" cx="211" cy="389" r="30.5" />
        <circle stroke="#A0A0A0" opacity="0.401594616" cx="286" cy="464" r="30.5" />
        <circle stroke="#A0A0A0" opacity="0.401594616" cx="286" cy="64" r="30.5" />
        <circle stroke="#A0A0A0" opacity="0.401594616" cx="125" cy="114" r="30.5" />
        <circle stroke="#A0A0A0" opacity="0.401594616" cx="63" cy="242" r="30.5" />
        <circle stroke="#A0A0A0" opacity="0.401594616" cx="112" cy="389" r="30.5" />
        <circle stroke="#60086D" opacity="0.573750814" cx="191" cy="479" r="30.5" />
        <circle stroke="#0065D5" opacity="0.573750814" cx="33" cy="332" r="30.5" />
        <circle stroke="#60086D" opacity="0.573750814" cx="46" cy="152" r="30.5" />
        <path stroke="#A0A0A0" opacity="0.401594616" stroke-linecap="round" d="M178,305 C261.957407,301.081491 326.233628,296.057941 370.828661,289.929348 C415.423694,283.800755 479.699915,271.157639 563.657322,252" />
        <path stroke="#0065D5" opacity="0.147901263" stroke-linecap="round" d="M191,211 C261.171007,205.999072 318.983737,205.999072 364.438188,211 C409.89264,216.000928 476.299018,229.667595 563.657322,252" />
        <path stroke="#A0A0A0" opacity="0.401594616" stroke-linecap="round" d="M563.657322,252 C514.714124,208.14937 467.845154,177.816037 423.05041,161 C378.255666,144.183963 318.572196,134.517297 244,132" />
        <path stroke="#A0A0A0" opacity="0.401594616" stroke-linecap="round" d="M563.657322,252 C533.750182,188.648973 499.954728,142.648973 462.270959,114 C424.58719,85.3510269 376.830204,69.3508726 319,65.999537" />
        <path stroke="#A0A0A0" opacity="0.401594616" stroke-linecap="round" d="M563.657322,252 C484.758537,188.279593 420.482317,148.279593 370.828661,132 C336.50034,120.745016 291.996359,115.200012 237.316716,115.364989 M183.436907,117.170326 C177.909586,117.506595 169.430617,118.116487 158,119" />
        <path stroke="#A0A0A0" opacity="0.401594616" stroke-linecap="round" d="M563.657322,252 C438.871653,261.21341 346.319213,265.820115 286,265.820115 C225.680787,265.820115 162.347454,261.21341 96,252" />
        <path stroke="#60086D" opacity="0.146493821" stroke-linecap="round" d="M563.657322,252 C462.180698,218.279567 380.628257,195.506469 319,183.680707 C257.371743,171.854945 177.371743,163.627965 79,158.999769" />
        <path stroke="#A0A0A0" opacity="0.401594616" stroke-linecap="round"  d="M563.657322,252 C477.864668,319.825855 410.255114,361.825855 360.828661,378 C329.825522,388.145362 289.963233,393.369624 241.241795,393.672786 M180.738395,391.816363 C173.050814,391.331755 161.138016,390.392968 145,389" />
        <path stroke="#A0A0A0" opacity="0.401594616" stroke-linecap="round" d="M563.657322,252 C508.025922,325.480332 459.895505,371.146999 419.266074,389 C378.636642,406.853001 319.295216,408.410596 241.241795,393.672786" />
        <path stroke="#60086D" opacity="0.147901263" stroke-linecap="round" d="M563.657322,252 C520.385297,327.529481 479.609077,378.086017 441.328661,403.669609 C415.222199,421.117096 373.226904,438.344378 315.342775,455.351455 M256.647212,471.174906 C249.646531,472.91734 238.764127,475.525704 224,479" />
        <path stroke="#0065D5" opacity="0.146493821" stroke-linecap="round" d="M66,332 C165.119218,352.012119 242.375385,357.565869 297.768499,348.661249 C353.161613,339.75663 441.79122,307.536213 563.657322,252" />
    </g>
    <g id="API" transform="translate(547.000000, 82.000000)" fill-rule="nonzero">
        <path fill="url(#linearGradient-1)" d="M324.142222,205.982114 L312.364504,199.210724 C314.342381,189.414599 315.343346,179.605166 315.343346,170 C315.343346,160.255108 314.358417,150.43636 312.413951,140.76 L324.142222,134.017221 C327.774565,131.929315 330.3732,128.55726 331.458359,124.52317 C332.543518,120.48908 331.986907,116.275342 329.889422,112.658434 L297.815755,57.3409002 C295.718271,53.7239922 292.332495,51.1363992 288.28119,50.0558513 C284.229216,48.9753033 279.998165,49.5295499 276.365154,51.6181213 L264.627528,58.3662231 C249.800808,45.3776908 232.351396,35.3254012 213.776734,29.070998 L213.776734,15.6360078 C213.776734,7.01424658 206.732555,0 198.074001,0 L133.926667,0 C125.268113,0 118.223934,7.01424658 118.223934,15.6360078 L118.223934,29.0716634 C99.7481656,35.3007828 82.3228096,45.3663796 67.4412963,58.4061448 L55.6348458,51.6181213 C52.0018349,49.5295499 47.7701154,48.974638 43.7188103,50.0558513 C39.6675053,51.1370646 36.2817288,53.7239922 34.1842446,57.3409002 L2.11057759,112.658434 C0.0130934045,116.275342 -0.543518359,120.48908 0.541640709,124.52317 C1.62679978,128.55726 4.22543501,131.929315 7.8577778,134.017221 L19.6354956,140.788611 C17.6589559,150.584736 16.657322,160.394168 16.657322,170 C16.657322,179.743562 17.6422508,189.562309 19.5867169,199.239335 L7.858446,205.982114 C0.359889929,210.292994 -2.21803106,219.874207 2.11057759,227.341566 L34.1842446,282.6591 C38.5135215,290.125127 48.1356216,292.692759 55.6348458,288.381879 L67.3718034,281.633777 C82.1991924,294.622309 99.6479354,304.674599 118.223934,310.929667 L118.223934,324.363992 C118.223934,332.985753 125.268113,340 133.926667,340 L198.074001,340 C206.732555,340 213.776734,332.985753 213.776734,324.363992 L213.776734,310.928337 C232.253171,304.699217 249.678527,294.63362 264.56004,281.594521 L276.365822,288.381879 C283.86371,292.692759 293.487147,290.125127 297.816424,282.6591 L329.890091,227.341566 C334.218699,219.874207 331.640778,210.292994 324.142222,205.982114 Z M321.209486,222.35135 L289.135819,277.668219 C287.570223,280.369589 284.089562,281.297769 281.377333,279.73816 L266.414967,271.13636 C264.513934,270.04317 262.118432,270.30998 260.50673,271.794403 C245.209596,285.882114 226.804657,296.511272 207.282485,302.533464 C205.184332,303.180861 203.753713,305.113072 203.753713,307.300117 L203.753713,324.363992 C203.753713,327.482544 201.205861,330.019569 198.074001,330.019569 L133.926667,330.019569 C130.794807,330.019569 128.246955,327.482544 128.246955,324.363992 L128.246955,307.300783 C128.246955,305.113738 126.816336,303.181526 124.718852,302.534129 C105.076404,296.474677 86.6487455,285.858826 71.4264495,271.83499 C70.4769353,270.960039 69.2547949,270.507593 68.0219633,270.507593 C67.1626563,270.507593 66.2986719,270.727162 65.5175445,271.176282 L50.6233354,279.73816 C47.9104377,281.297104 44.4304448,280.368924 42.864849,277.668219 L10.7911819,222.35135 C9.22558606,219.650646 10.1583952,216.184775 12.8699565,214.625166 L27.752138,206.069276 C29.6525027,204.976751 30.6180538,202.781057 30.1349442,200.649237 C27.8423452,190.531076 26.6803429,180.21863 26.6803429,170 C26.6803429,159.953033 27.8597184,149.650568 30.1863957,139.378708 C30.6688371,137.247554 29.7032861,135.051194 27.8035895,133.959335 L12.8699565,125.374168 C11.5562725,124.618982 10.6167814,123.399374 10.2238789,121.940235 C9.83164472,120.481096 10.0327733,118.956751 10.7911819,117.64865 L42.864849,62.3311155 C43.6232575,61.0230137 44.8480707,60.0868493 46.3141046,59.6962818 C47.778802,59.3050489 49.3103196,59.5059883 50.6240036,60.2611742 L65.5863692,68.8629746 C67.4880704,69.9568297 69.8829042,69.6893542 71.494606,68.2049315 C86.7924088,54.1172211 105.19668,43.4880626 124.718852,37.4658708 C126.817004,36.8184736 128.247623,34.8862622 128.247623,32.6992172 L128.247623,15.6360078 C128.247623,12.517456 130.795475,9.98043053 133.927335,9.98043053 L198.074669,9.98043053 C201.206529,9.98043053 203.754381,12.517456 203.754381,15.6360078 L203.754381,32.6992172 C203.754381,34.8862622 205.185,36.8184736 207.282485,37.4658708 C226.924265,43.5246575 245.351923,54.1405088 260.574887,68.1650098 C262.186589,69.6500978 264.582091,69.916908 266.483792,68.8237182 L281.378001,60.2611742 C282.692353,59.5059883 284.223203,59.3050489 285.6879,59.6962818 C287.153266,60.0875147 288.378079,61.0230137 289.137156,62.3311155 L321.210823,117.64865 C321.969231,118.956751 322.171028,120.481096 321.778126,121.940235 C321.385223,123.399374 320.445732,124.618982 319.132048,125.374168 L304.249867,133.930059 C302.349502,135.022583 301.383951,137.218943 301.86706,139.350098 C304.159659,149.467593 305.321662,159.779374 305.321662,170 C305.321662,180.046967 304.142286,190.349432 301.815609,200.620626 C301.333168,202.751781 302.298719,204.947476 304.198415,206.04 L319.132048,214.625166 C321.842941,216.184775 322.77575,219.650646 321.209486,222.35135 Z" />
        <path fill="url(#linearGradient-2)" d="M166,69 C110.308,69 65,114.308667 65,170 C65,225.691333 110.308,271 166,271 C221.692,271 267,225.691333 267,170 C267,114.308667 221.692,69 166,69 Z M166,261 C115.822667,261 75,220.177333 75,170 C75,119.822667 115.822667,79 166,79 C216.177333,79 257,119.822667 257,170 C257,220.177333 216.177333,261 166,261 Z" />
        <path fill="#60086D" d="M200.69778,59.0784729 C204.381579,60.1067349 208.054054,61.3011054 211.611875,62.6274952 C212.289892,62.880377 212.994803,63 213.688391,63 C215.752168,63 217.715445,61.9388882 218.574644,60.1711949 C219.722602,57.8091055 218.467067,55.0788499 215.769861,54.0735209 C211.907003,52.6337062 207.920999,51.3370672 203.920839,50.2207925 C201.128795,49.4410736 198.142123,50.7922557 197.251783,53.2380193 C196.362151,55.6837828 197.905029,58.298754 200.69778,59.0784729 Z" />
        <path fill="#0065D5" d="M61.2069851,225.772238 C59.7692954,223.193976 56.4671019,222.243792 53.8330283,223.650632 C51.19823,225.057472 50.2272098,228.2881 51.6648995,230.866361 C53.9199853,234.911027 56.416377,238.889747 59.0845088,242.691903 C60.1381382,244.193052 61.8388729,245 63.569318,245 C64.6294692,245 65.7004901,244.697217 66.6410754,244.065416 C69.1157278,242.402593 69.7439924,239.091838 68.0447069,236.670995 C65.5859967,233.166658 63.2852584,229.499939 61.2069851,225.772238 Z" />
        <path fill="#60086D" d="M155.464916,286.264006 C128.880992,284.012086 103.647133,272.686808 84.4121698,254.37362 C82.4436272,252.499513 79.302955,252.549584 77.3972523,254.484168 C75.4915496,256.419401 75.5411601,259.506931 77.5097027,261.380388 C98.3791649,281.249697 125.762148,293.53804 154.61294,295.981792 C154.757802,295.994147 154.901342,296 155.04422,296 C157.591551,296 159.758535,294.082324 159.981452,291.54168 C160.216275,288.858624 158.194153,286.495506 155.464916,286.264006 Z" />
        <path fill="#0065D5" d="M237.647258,63.8794916 C235.418088,62.3086427 232.376117,62.8988033 230.852851,65.1969345 C229.329585,67.4957378 229.901869,70.6327305 232.130387,72.2035794 C254.841853,88.2098377 271.270578,112.027994 278.390236,139.269486 C278.978163,141.518549 280.951826,143 283.107343,143 C283.528408,143 283.956644,142.943538 284.382272,142.825237 C286.989489,142.100644 288.532961,139.334014 287.830316,136.646027 C280.105133,107.084223 262.28285,81.2421783 237.647258,63.8794916 Z" />
    </g>
    <text class="text" id="Aggregation" opacity="0.504562378" font-family="URWDIN-Light, URW DIN" font-size="35" font-weight="300" fill="#000000">
        <tspan x="165" y="621">AGGREGATION</tspan>
    </text>
    <text class="text" id="JJ-API" font-family="URWDINSemiCond-Medium, URW DIN SemiCond" font-size="110" font-weight="400" letter-spacing="31.7428571" fill="#000000">
        <tspan x="637.367143" y="559">JJ</tspan>
        <tspan x="593.335714" y="680.7">API</tspan>
    </text>
    <text class="text" id="INSIGHT" opacity="0.502378191" font-family="URWDIN-Light, URW DIN" font-size="35" font-weight="300" fill="#000000">
        <tspan x="1059" y="621">INSIGHT</tspan>
    </text>
    <path id="Line" d="M1011.51808,231.000295 L1059.99989,256.51036 L1010.50275,279.989774 L1010.917,259.993 L866.406756,256.999034 L861.907722,256.90579 L862.09421,247.907722 L866.593244,248.000966 L1011.103,250.995 L1011.51808,231.000295 Z" fill="#A0A0A0" fill-rule="nonzero" opacity="0.398816063" />
    <g id="lightbulb-svgrepo-com" transform="translate(1028.000000, 155.000000)" fill-rule="nonzero">
        <path d="M97,12 C64.41708,12 38.0034045,38.5033044 38.0034045,71.1967871 C37.90992,79.8003901 39.7427694,88.3152787 43.3667314,96.113253 C45.1622208,99.432254 47.168674,102.631902 49.3736575,105.692369 C53.6700363,111.471161 57.2705687,117.739282 60.1003112,124.366265 C62.0474185,131.380766 63.1104942,138.612515 63.264674,145.892369 L73.9913278,145.892369 C73.8266076,137.348434 72.5463805,128.863027 70.1833657,120.653012 C67.08772,113.159776 63.0890902,106.075174 58.2767801,99.5574297 C56.3303015,96.9016415 54.5394988,94.1344472 52.9134532,91.2698795 C50.0318003,84.941744 48.6022102,78.0453925 48.7300582,71.0891566 C48.7300582,44.2359187 70.4252908,22.4670683 97.1877164,22.4670683 C123.950142,22.4670683 145.645375,44.2359187 145.645375,71.0891566 C145.655232,78.1147433 144.078255,85.0512301 141.032914,91.37751 C139.406868,94.2420777 137.616065,97.009272 135.669587,99.6650602 C130.883583,106.151945 126.903261,113.199879 123.816634,120.653012 C121.444336,128.897742 120.164017,137.419946 120.008672,146 L130.735326,146 C130.889506,138.720145 131.952582,131.488396 133.899689,124.473896 C136.729431,117.846912 140.329964,111.578791 144.626343,105.8 C146.839888,102.67048 148.846503,99.3986667 150.633269,96.0056225 C154.257231,88.2076482 156.09008,79.6927596 155.996595,71.0891566 C155.93743,38.4377141 129.541076,12 97,12 Z" id="Path" fill="#A0A0A0" opacity="0.400427682" />
        <path d="M100.026667,83.275741 C98.3612694,81.574753 95.6653973,81.574753 94,83.275741 L78,99.6572986 L93.2533333,116.748724 L93.2533333,147 L102,147 L102,113.253991 L90.0533333,99.8757193 L100.133333,89.5553381 C100.950512,88.7176194 101.400578,87.5761733 101.38047,86.3923833 C101.360362,85.2085933 100.871802,84.0838604 100.026667,83.275741 Z" id="Path" fill="url(#linearGradient-3)" />
        <path d="M128.685393,157 L65.3146067,157 C62.9317152,157 61,159.014719 61,161.5 C61,163.985281 62.9317152,166 65.3146067,166 L128.685393,166 C131.068285,166 133,163.985281 133,161.5 C133,159.014719 131.068285,157 128.685393,157 Z" id="Path" fill="url(#linearGradient-4)" />
        <path d="M118.75,173 L76.25,173 C73.9027898,173 72,175.014719 72,177.5 C72,179.985281 73.9027898,182 76.25,182 L118.75,182 C121.09721,182 123,179.985281 123,177.5 C123,175.014719 121.09721,173 118.75,173 Z" id="Path" fill="url(#linearGradient-5)" />
        <path d="M93.2797938,58.5606073 L78.1482385,73.6225926 C76.5608658,75.3664444 76.6270763,78.0432504 78.2987414,79.7072298 C79.9704065,81.3712091 82.6595765,81.4371152 84.411483,79.8570408 L99.5430383,64.6847112 C100.755603,63.5910787 101.264547,61.9216094 100.867039,60.3416433 C100.469532,58.7616771 99.2301858,57.5280289 97.642922,57.1323492 C96.0556581,56.7366695 94.3784777,57.2432738 93.2797938,58.4502631 L93.2797938,58.5606073 Z" id="Path" fill="url(#linearGradient-6)" />
        <rect id="Rectangle" fill-opacity="0" fill="#000000" x="0" y="0" width="194" height="194" />
    </g>
</svg>