<svg role="img" width="30" height="30" viewBox="0 0 1000 1000" fill="#60086D" xmlns="http://www.w3.org/2000/svg">
    <title>jens-johnson.com</title>
    <path d="M125 625c52.188 159.145 200.627 275 375.12 275C674.346 900 822.6 783.77 875 625m-533.157 0 36.745 27.899c4.392 3.334 7.015 8.644 7.015 14.2v90.144c0 9.725 2.816 19.14 8.144 27.229l23.793 36.132c5.18 7.862 13.84 12.556 23.176 12.556h5.753c10.807 0 19.602-8.903 19.602-19.843v-28.648c0-6.974 2.682-13.532 7.553-18.463l30.545-30.922c6.197-6.274 10.934-14.037 13.708-22.455l9.665-29.35c.14-.43.535-.715.978-.715h8.23c14.702 0 27.462-10.085 31.025-24.525L575.983 625m156.72 0a169.95 169.95 0 0 0 5.918 33.518l26.535 94.027c-66.452 71.439-160.68 116.122-265.037 116.122-157.59 0-292.124-101.564-342.728-243.667m386.693 0-6.333 25.645c-.116.465-.526.79-1 .79h-8.229c-13.786 0-25.978 8.895-30.341 22.139l-9.665 29.35a26.29 26.29 0 0 1-6.23 10.206l-30.546 30.922c-10.716 10.849-16.618 25.274-16.618 40.617v6.151l-15.625-23.726a17.846 17.846 0 0 1-2.944-9.848v-90.14c.002-15.374-7.247-30.057-19.392-39.273l-3.73-2.833m449.298 0a369.984 369.984 0 0 1-53.468 98.86l-20.875-73.948a138.431 138.431 0 0 1-4.62-24.912M746.922 375l-7.4-5.005a15.299 15.299 0 0 0-8.565-2.631h-4.09l11.437-17.405a3.068 3.068 0 0 1 2.569-1.394h24.053v6.81c0 8.652 6.912 15.665 15.441 15.665 7.604 0 13.91-5.58 15.191-12.92l5.632 2.857a39.874 39.874 0 0 0 17.954 4.3h19.484c1.25 3.218 2.453 6.46 3.611 9.723m-99.272-149.228a369.615 369.615 0 0 1 19.717 19.362l-9.705 9.846c-6.03 6.118-6.03 16.037 0 22.154a15.283 15.283 0 0 0 21.837 0l8.301-8.422a370.357 370.357 0 0 1 41.623 65.231h-5.598a9.24 9.24 0 0 1-4.145-.992l-23.814-12.082a33.739 33.739 0 0 0-15.191-3.636h-35.123c-11.384 0-21.952 5.737-28.267 15.346l-22.85 34.785h-14.384c-6.245 0-11.323-5.154-11.323-11.487v-27.644c0-.448.282-.848.704-.99l30.13-10.189c7.51-2.54 14.437-6.884 20.037-12.563 9.683-9.824 15.013-22.882 15.013-36.773v-28.16c0-.273.11-.543.3-.738l11.647-11.815a15.56 15.56 0 0 0 1.09-1.233zM184.588 375l-11.528-35.088a370.382 370.382 0 0 1 84.705-114.14c.34.425.7.835 1.091 1.23l16.471 16.711a15.32 15.32 0 0 0 10.918 4.588c4.095 0 8.025-1.65 10.919-4.588l23.29-23.633c3.305-3.352 7.702-5.2 12.377-5.2h20.327v1.046c0 5.429 2.772 10.471 7.323 13.325a15.244 15.244 0 0 0 15.024.686l26.951-13.674a12.843 12.843 0 0 1 5.78-1.382h55.086c-6.024 3.984-10.21 10.34-11.503 17.906-1.817 10.65 2.56 20.993 11.425 26.99l21.222 14.353c.286.195.457.518.457.868v7.77c0 .575-.462 1.044-1.03 1.044h-7.091c-10.175 0-19.74 4.02-26.935 11.318L371.14 375m43.678.001 56.89-57.715a7.109 7.109 0 0 1 5.095-2.141h7.092c17.596 0 31.912-14.524 31.912-32.376V275c0-10.85-5.314-20.921-14.21-26.937l-13.034-8.818 25.015-6.346c11.01-2.79 18.7-12.78 18.7-24.304 0-13.81-11.075-25.045-24.686-25.045h-99.357a43.494 43.494 0 0 0-19.591 4.692l-10.203 5.176c-4.719-6.01-11.992-9.868-20.137-9.868H332.83c-12.922 0-25.074 5.104-34.213 14.378l-12.374 12.554-4.616-4.681c60.898-46.717 136.68-74.47 218.738-74.47 82.059 0 157.84 27.75 218.735 74.468l-10.71 10.865c-6.03 6.117-9.347 14.245-9.347 22.893v28.158c0 5.522-2.122 10.714-5.968 14.618a20.452 20.452 0 0 1-7.965 4.995l-30.13 10.19c-13.05 4.412-21.822 16.755-21.822 30.715v27.642A42.883 42.883 0 0 0 637.653 375M875 375c-51.792-159.646-200.16-275-374.632-275C325.062 100 176.11 214.17 125 375"/><path d="M1000 375v250H0V375h1000zm-28 28H28v194h944V403z"/><path d="M68.305 457.884v40.984c0 7.144-.188 10.058-.94 12.408-1.41 4.23-4.418 6.486-8.836 6.486-4.23 0-8.084-1.88-11.844-5.828l-5.546 6.674c5.64 5.17 10.904 7.332 18.236 7.332 7.99 0 13.63-2.82 16.544-8.366 1.974-3.572 2.444-7.52 2.444-18.894v-40.796H68.305zM96.035 525h40.514v-8.272h-30.55v-21.526h25.756v-8.272h-25.756v-20.774h30.268v-8.272H96.035zM150.461 525h9.776v-50.196L190.129 525h9.776v-67.116h-9.776v50.196l-29.892-50.196h-9.776zM212.125 515.412c4.324 7.05 12.126 10.528 23.594 10.528 15.416 0 23.594-6.768 23.594-19.27 0-6.768-2.068-11.468-6.392-14.382-3.384-2.256-4.982-2.914-14.006-5.076-10.904-2.726-14.476-5.734-14.476-12.032s4.23-10.058 11.374-10.058c5.922 0 10.34 1.974 13.16 6.016l7.52-4.888c-3.76-6.11-10.81-9.306-20.398-9.306-13.442 0-21.338 6.862-21.338 18.706 0 10.622 5.358 16.074 19.176 19.552 9.776 2.35 9.776 2.35 12.032 3.948 2.35 1.598 3.666 4.418 3.666 7.802 0 6.956-4.888 10.716-13.818 10.716-7.708 0-13.066-2.444-15.98-7.144l-7.708 4.888zM271.439 495.39h27.824v-8.272h-27.824zM333.385 457.884v40.984c0 7.144-.188 10.058-.94 12.408-1.41 4.23-4.418 6.486-8.836 6.486-4.23 0-8.084-1.88-11.844-5.828l-5.546 6.674c5.64 5.17 10.904 7.332 18.236 7.332 7.99 0 13.63-2.82 16.544-8.366 1.974-3.572 2.444-7.52 2.444-18.894v-40.796h-10.058zM359.423 499.62c0 8.836 1.316 14.006 4.606 18.236 4.23 5.546 10.34 8.084 19.646 8.084 8.554 0 14.194-2.068 18.612-6.956 4.042-4.324 5.546-9.776 5.546-19.364v-16.356c0-8.836-1.316-14.006-4.606-18.236-4.23-5.546-10.34-8.084-19.552-8.084-8.648 0-14.288 2.068-18.706 6.956-4.042 4.418-5.546 9.776-5.546 19.364v16.356zm38.352-.94c0 13.442-4.23 19.082-14.1 19.082-9.964 0-14.194-5.64-14.194-19.082v-14.476c0-13.442 4.23-19.082 14.194-19.082 9.87 0 14.1 5.64 14.1 19.082v14.476zM424.283 525h10.058v-29.798h25.756V525h10.058v-67.116h-10.058v29.046h-25.756v-29.046h-10.058zM488.203 525h9.776v-50.196L527.871 525h9.776v-67.116h-9.776v50.196l-29.892-50.196h-9.776zM549.867 515.412c4.324 7.05 12.126 10.528 23.594 10.528 15.416 0 23.594-6.768 23.594-19.27 0-6.768-2.068-11.468-6.392-14.382-3.384-2.256-4.982-2.914-14.006-5.076-10.904-2.726-14.476-5.734-14.476-12.032s4.23-10.058 11.374-10.058c5.922 0 10.34 1.974 13.16 6.016l7.52-4.888c-3.76-6.11-10.81-9.306-20.398-9.306-13.442 0-21.338 6.862-21.338 18.706 0 10.622 5.358 16.074 19.176 19.552 9.776 2.35 9.776 2.35 12.032 3.948 2.35 1.598 3.666 4.418 3.666 7.802 0 6.956-4.888 10.716-13.818 10.716-7.708 0-13.066-2.444-15.98-7.144l-7.708 4.888zM608.335 499.62c0 8.836 1.316 14.006 4.606 18.236 4.23 5.546 10.34 8.084 19.646 8.084 8.554 0 14.194-2.068 18.612-6.956 4.042-4.324 5.546-9.776 5.546-19.364v-16.356c0-8.836-1.316-14.006-4.606-18.236-4.23-5.546-10.34-8.084-19.552-8.084-8.648 0-14.288 2.068-18.706 6.956-4.042 4.418-5.546 9.776-5.546 19.364v16.356zm38.352-.94c0 13.442-4.23 19.082-14.1 19.082-9.964 0-14.194-5.64-14.194-19.082v-14.476c0-13.442 4.23-19.082 14.194-19.082 9.87 0 14.1 5.64 14.1 19.082v14.476zM673.195 525h9.776v-50.196L712.863 525h9.776v-67.116h-9.776v50.196l-29.892-50.196h-9.776zM740.123 525h10.058v-10.622h-10.058zM802.445 507.328c-.94 6.862-5.358 10.434-12.972 10.434-9.682 0-13.348-5.358-13.348-19.834v-12.784c0-14.382 3.666-19.834 13.348-19.834 7.238 0 11.468 3.572 12.314 10.434l9.306-.752c-.658-11.656-8.178-17.86-21.902-17.86-8.272 0-13.912 2.256-17.954 7.144-3.76 4.418-5.17 9.964-5.17 20.21v14.006c0 9.494 1.128 14.758 4.136 19.082 4.042 5.64 10.058 8.366 18.988 8.366 14.1 0 21.996-6.016 22.654-17.578l-9.4-1.034zM825.099 499.62c0 8.836 1.316 14.006 4.606 18.236 4.23 5.546 10.34 8.084 19.646 8.084 8.554 0 14.194-2.068 18.612-6.956 4.042-4.324 5.546-9.776 5.546-19.364v-16.356c0-8.836-1.316-14.006-4.606-18.236-4.23-5.546-10.34-8.084-19.552-8.084-8.648 0-14.288 2.068-18.706 6.956-4.042 4.418-5.546 9.776-5.546 19.364v16.356zm38.352-.94c0 13.442-4.23 19.082-14.1 19.082-9.964 0-14.194-5.64-14.194-19.082v-14.476c0-13.442 4.23-19.082 14.194-19.082 9.87 0 14.1 5.64 14.1 19.082v14.476zM889.959 525h9.682v-47.94l16.45 33.934h6.392l16.45-33.934V525h9.682v-67.116h-9.588l-19.74 41.36-19.74-41.36h-9.588z"/>
</svg>