<svg
  role="img"
  class="jens-johnson-apis-md-svg-img icon-svg"
  width="30"
  height="30"
  fill="#60086D"
  fill-rule="nonzero"
  viewBox="0 0 646 646"
  version="1.1"
  xmlns="http://www.w3.org/2000/svg"
  xmlns:xlink="http://www.w3.org/1999/xlink"
>
    <title>jens-johnson.com</title>
    <defs>
        <rect id="path-1" x="0" y="0" width="438" height="167" />
        <rect id="path-3" x="0" y="0" width="438" height="173" />
    </defs>
    <g transform="translate(99.000000, 393.000000)">
        <mask id="mask-2">
            <use xlink:href="#path-1" />
        </mask>
        <path
          mask="url(#mask-2)"
          d="M218.989,-282.348 C98.047,-282.348 -0.348,-183.953 -0.348,-63.011 C-0.348,57.931 98.047,156.326 218.989,156.326 C339.931,156.326 438.326,57.931 438.326,-63.011 C438.326,-183.953 339.931,-282.348 218.989,-282.348 Z M410.896,-126.578 L397.41,-126.578 C393.253,-126.578 389.09,-125.595 385.373,-123.737 L380.428,-121.264 C377.31,-119.706 373.574,-119.939 370.673,-121.871 L352.033,-134.298 C350.622,-135.238 348.963,-135.741 347.268,-135.741 L344.993,-135.741 L351.355,-145.285 C351.675,-145.764 352.208,-146.049 352.784,-146.049 L366.165,-146.049 L366.165,-142.315 C366.165,-137.571 370.01,-133.725 374.755,-133.725 C378.985,-133.725 382.493,-136.785 383.206,-140.81 L386.339,-139.243 C389.425,-137.7 392.878,-136.885 396.327,-136.885 L407.166,-136.885 C408.503,-133.495 409.741,-130.055 410.896,-126.578 Z M346.696,-205.822 C346.696,-205.972 346.757,-206.12 346.863,-206.227 L353.342,-212.706 C353.558,-212.922 353.76,-213.148 353.949,-213.382 C357.736,-209.979 361.397,-206.44 364.918,-202.765 L359.519,-197.366 C356.164,-194.011 356.164,-188.572 359.519,-185.218 C361.196,-183.541 363.395,-182.702 365.593,-182.702 C367.791,-182.702 369.99,-183.54 371.667,-185.218 L376.285,-189.836 C385.197,-178.805 392.976,-166.825 399.44,-154.067 L396.326,-154.067 C395.53,-154.067 394.733,-154.256 394.02,-154.611 L380.772,-161.236 C378.162,-162.541 375.24,-163.23 372.321,-163.23 L352.782,-163.23 C346.449,-163.23 340.57,-160.084 337.057,-154.815 L324.345,-135.741 L316.343,-135.741 C312.869,-135.741 310.044,-138.567 310.044,-142.04 L310.044,-157.198 C310.044,-157.444 310.201,-157.663 310.436,-157.741 L327.197,-163.328 C331.375,-164.721 335.229,-167.103 338.344,-170.217 C343.731,-175.604 346.696,-182.764 346.696,-190.381 L346.696,-205.822 L346.696,-205.822 Z M84.027,-213.382 C84.216,-213.149 84.416,-212.924 84.634,-212.707 L93.797,-203.544 C95.407,-201.932 97.593,-201.028 99.871,-201.028 C102.149,-201.028 104.335,-201.933 105.945,-203.544 L118.902,-216.503 C120.74,-218.341 123.186,-219.354 125.787,-219.354 L137.095,-219.354 L137.095,-218.781 C137.095,-215.804 138.637,-213.039 141.169,-211.474 C143.701,-209.908 146.864,-209.766 149.527,-211.098 L164.52,-218.596 C165.513,-219.092 166.624,-219.354 167.735,-219.354 L198.38,-219.354 C195.029,-217.169 192.7,-213.684 191.981,-209.535 C190.97,-203.695 193.405,-198.024 198.337,-194.736 L210.143,-186.865 C210.302,-186.758 210.397,-186.581 210.397,-186.389 L210.397,-182.129 C210.397,-181.813 210.14,-181.556 209.824,-181.556 L205.879,-181.556 C200.219,-181.556 194.898,-179.352 190.895,-175.35 L133.129,-117.584 C133.022,-117.477 132.875,-117.417 132.724,-117.417 L118.196,-117.417 C103.354,-117.417 91.28,-105.343 91.28,-90.501 L91.28,-86.318 L81.757,-88.223 C79.487,-88.677 77.593,-90.125 76.557,-92.194 L70.901,-103.504 C69.446,-106.415 66.472,-108.254 63.218,-108.254 L58.101,-108.254 C53.904,-108.254 50.192,-110.93 48.866,-114.911 L36.905,-150.794 C48.443,-174.629 64.532,-195.865 84.027,-213.382 Z M218.989,139.145 C107.52,139.145 16.832,48.457 16.832,-63.011 C16.832,-85.09 20.402,-106.348 26.974,-126.253 L32.566,-109.477 C36.215,-98.528 46.384,-91.153 57.908,-91.073 L61.189,-84.51 C64.611,-77.664 70.879,-72.878 78.385,-71.375 L111.144,-64.824 C112.986,-64.456 114.661,-63.559 115.989,-62.231 C118.654,-59.565 121.786,-57.533 125.199,-56.211 L119.209,-38.239 C118.917,-37.363 118.768,-36.447 118.768,-35.522 L118.768,-17.196 C118.768,-8.77 122.793,-0.719 129.534,4.337 L151.525,20.83 C153.963,22.658 155.419,25.57 155.419,28.617 L155.419,78.046 C155.419,83.379 156.982,88.542 159.94,92.977 L173.148,112.79 C176.023,117.101 180.831,119.675 186.013,119.675 L189.207,119.675 C195.206,119.675 200.088,114.793 200.088,108.794 L200.088,93.085 C200.088,89.261 201.577,85.665 204.281,82.961 L221.237,66.005 C224.677,62.565 227.307,58.308 228.847,53.692 L234.212,37.598 C234.29,37.363 234.509,37.206 234.755,37.206 L239.323,37.206 C247.485,37.206 254.568,31.676 256.546,23.758 L262.716,-0.921 C264.219,-6.935 262.43,-13.395 258.045,-17.778 L246.071,-29.752 C242.719,-33.104 238.26,-34.952 233.518,-34.952 L222.545,-34.952 L191.093,-66.404 C187.741,-69.756 183.282,-71.604 178.54,-71.604 L136.72,-71.604 C136.586,-71.607 136.453,-71.607 136.319,-71.604 L134.843,-71.604 C132.311,-71.604 129.928,-72.59 128.138,-74.382 C124.404,-78.117 119.692,-80.638 114.513,-81.673 L108.46,-82.884 L108.46,-90.5 C108.46,-95.868 112.827,-100.236 118.196,-100.236 L127.932,-100.236 L127.932,-99.663 C127.932,-94.919 131.778,-91.073 136.522,-91.073 C141.266,-91.073 145.112,-94.919 145.112,-99.663 L145.112,-105.284 C145.166,-105.337 145.225,-105.383 145.279,-105.435 L203.045,-163.201 C203.802,-163.958 204.809,-164.375 205.88,-164.375 L209.825,-164.375 C219.614,-164.375 227.578,-172.339 227.578,-182.128 L227.578,-186.388 C227.578,-192.338 224.622,-197.86 219.673,-201.159 L212.422,-205.994 L226.338,-209.474 C232.463,-211.004 236.741,-216.482 236.741,-222.801 C236.741,-230.373 230.58,-236.534 223.008,-236.534 L167.735,-236.534 C163.971,-236.534 160.202,-235.645 156.836,-233.961 L151.16,-231.123 C148.535,-234.418 144.489,-236.534 139.958,-236.534 L125.786,-236.534 C118.597,-236.534 111.837,-233.735 106.753,-228.65 L99.869,-221.766 L97.301,-224.333 C131.179,-249.95 173.337,-265.168 218.987,-265.168 C264.637,-265.168 306.795,-249.951 340.671,-224.334 L334.713,-218.376 C331.359,-215.022 329.513,-210.565 329.513,-205.823 L329.513,-190.383 C329.513,-187.355 328.333,-184.508 326.193,-182.367 C324.955,-181.129 323.424,-180.183 321.762,-179.628 L305.001,-174.041 C297.741,-171.621 292.861,-164.853 292.861,-157.198 L292.861,-142.041 C292.861,-137.713 294.059,-133.667 296.11,-130.182 C292.625,-127.836 289.569,-124.816 287.164,-121.206 L279.056,-109.046 C276.098,-104.61 274.535,-99.447 274.535,-94.115 L274.535,-77.724 C274.535,-72.392 276.098,-67.229 279.056,-62.793 L288.864,-48.082 C293.868,-40.576 302.24,-36.096 311.259,-36.096 L334.057,-36.096 C338.255,-36.096 341.966,-33.422 343.292,-29.439 L345.34,-23.298 C346.997,-18.326 347.838,-13.147 347.838,-7.904 L347.838,-1.419 C347.838,7.148 349.031,15.67 351.386,23.911 L366.116,75.47 C329.227,114.643 276.919,139.145 218.989,139.145 Z M161.835,7.085 L139.844,-9.408 C137.406,-11.237 135.95,-14.149 135.95,-17.196 L135.95,-34.128 L142.715,-54.42 L178.542,-54.42 C178.693,-54.42 178.841,-54.359 178.947,-54.253 L212.915,-20.285 C214.525,-18.673 216.711,-17.769 218.989,-17.769 L233.519,-17.769 C233.67,-17.769 233.818,-17.708 233.924,-17.602 L245.898,-5.628 C246.04,-5.486 246.097,-5.277 246.049,-5.084 L239.879,19.594 C239.815,19.849 239.587,20.027 239.324,20.027 L234.756,20.027 C227.103,20.027 220.335,24.905 217.913,32.167 L212.548,48.261 C211.849,50.359 210.652,52.294 209.089,53.857 L192.133,70.813 C186.184,76.762 182.908,84.672 182.908,93.085 L182.908,96.458 L174.234,83.448 C173.164,81.844 172.6,79.976 172.6,78.048 L172.6,28.62 C172.601,20.19 168.577,12.139 161.835,7.085 Z M367.909,19.192 C365.994,12.487 365.022,5.552 365.022,-1.419 L365.022,-7.904 C365.022,-14.996 363.885,-22.003 361.643,-28.731 L359.595,-34.872 C355.926,-45.879 345.665,-53.276 334.061,-53.276 L311.263,-53.276 C308.001,-53.276 304.973,-54.897 303.163,-57.611 L293.355,-72.323 C292.285,-73.928 291.719,-75.795 291.719,-77.723 L291.719,-94.114 C291.719,-96.043 292.285,-97.91 293.355,-99.514 L301.463,-111.675 C304.337,-115.986 309.146,-118.56 314.328,-118.56 L344.669,-118.56 L361.144,-107.577 C369.16,-102.233 379.495,-101.589 388.112,-105.898 L393.057,-108.371 C394.402,-109.043 395.907,-109.398 397.411,-109.398 L415.768,-109.398 C419.28,-94.497 421.147,-78.968 421.147,-63.011 C421.147,-16.879 405.604,25.684 379.497,59.741 L367.909,19.192 Z"
        />
        <line
          x1="27.5"
          y1="7"
          x2="409.5"
          y2="7"
          stroke="#60086D"
          stroke-width="14"
          stroke-linecap="square"
          mask="url(#mask-2)"
        />
    </g>
    <g transform="translate(99.000000, 74.000000)">
        <mask id="mask-4">
            <use xlink:href="#path-3" />
        </mask>
        <path
          mask="url(#mask-4)"
          d="M218.989,17.652 C98.047,17.652 -0.348,116.047 -0.348,236.989 C-0.348,357.931 98.047,456.326 218.989,456.326 C339.931,456.326 438.326,357.931 438.326,236.989 C438.326,116.047 339.931,17.652 218.989,17.652 Z M410.896,173.422 L397.41,173.422 C393.253,173.422 389.09,174.405 385.373,176.263 L380.428,178.736 C377.31,180.294 373.574,180.061 370.673,178.129 L352.033,165.702 C350.622,164.762 348.963,164.259 347.268,164.259 L344.993,164.259 L351.355,154.715 C351.675,154.236 352.208,153.951 352.784,153.951 L366.165,153.951 L366.165,157.685 C366.165,162.429 370.01,166.275 374.755,166.275 C378.985,166.275 382.493,163.215 383.206,159.19 L386.339,160.757 C389.425,162.3 392.878,163.115 396.327,163.115 L407.166,163.115 C408.503,166.505 409.741,169.945 410.896,173.422 Z M346.696,94.178 C346.696,94.028 346.757,93.88 346.863,93.773 L353.342,87.294 C353.558,87.078 353.76,86.852 353.949,86.618 C357.736,90.021 361.397,93.56 364.918,97.235 L359.519,102.634 C356.164,105.989 356.164,111.428 359.519,114.782 C361.196,116.459 363.395,117.298 365.593,117.298 C367.791,117.298 369.99,116.46 371.667,114.782 L376.285,110.164 C385.197,121.195 392.976,133.175 399.44,145.933 L396.326,145.933 C395.53,145.933 394.733,145.744 394.02,145.389 L380.772,138.764 C378.162,137.459 375.24,136.77 372.321,136.77 L352.782,136.77 C346.449,136.77 340.57,139.916 337.057,145.185 L324.345,164.259 L316.343,164.259 C312.869,164.259 310.044,161.433 310.044,157.96 L310.044,142.802 C310.044,142.556 310.201,142.337 310.436,142.259 L327.197,136.672 C331.375,135.279 335.229,132.897 338.344,129.783 C343.731,124.396 346.696,117.236 346.696,109.619 L346.696,94.178 L346.696,94.178 Z M84.027,86.618 C84.216,86.851 84.416,87.076 84.634,87.293 L93.797,96.456 C95.407,98.068 97.593,98.972 99.871,98.972 C102.149,98.972 104.335,98.067 105.945,96.456 L118.902,83.497 C120.74,81.659 123.186,80.646 125.787,80.646 L137.095,80.646 L137.095,81.219 C137.095,84.196 138.637,86.961 141.169,88.526 C143.701,90.092 146.864,90.234 149.527,88.902 L164.52,81.404 C165.513,80.908 166.624,80.646 167.735,80.646 L198.38,80.646 C195.029,82.831 192.7,86.316 191.981,90.465 C190.97,96.305 193.405,101.976 198.337,105.264 L210.143,113.135 C210.302,113.242 210.397,113.419 210.397,113.611 L210.397,117.871 C210.397,118.187 210.14,118.444 209.824,118.444 L205.879,118.444 C200.219,118.444 194.898,120.648 190.895,124.65 L133.129,182.416 C133.022,182.523 132.875,182.583 132.724,182.583 L118.196,182.583 C103.354,182.583 91.28,194.657 91.28,209.499 L91.28,213.682 L81.757,211.777 C79.487,211.323 77.593,209.875 76.557,207.806 L70.901,196.496 C69.446,193.585 66.472,191.746 63.218,191.746 L58.101,191.746 C53.904,191.746 50.192,189.07 48.866,185.089 L36.905,149.206 C48.443,125.371 64.532,104.135 84.027,86.618 Z M218.989,439.145 C107.52,439.145 16.832,348.457 16.832,236.989 C16.832,214.91 20.402,193.652 26.974,173.747 L32.566,190.523 C36.215,201.472 46.384,208.847 57.908,208.927 L61.189,215.49 C64.611,222.336 70.879,227.122 78.385,228.625 L111.144,235.176 C112.986,235.544 114.661,236.441 115.989,237.769 C118.654,240.435 121.786,242.467 125.199,243.789 L119.209,261.761 C118.917,262.637 118.768,263.553 118.768,264.478 L118.768,282.804 C118.768,291.23 122.793,299.281 129.534,304.337 L151.525,320.83 C153.963,322.658 155.419,325.57 155.419,328.617 L155.419,378.046 C155.419,383.379 156.982,388.542 159.94,392.977 L173.148,412.79 C176.023,417.101 180.831,419.675 186.013,419.675 L189.207,419.675 C195.206,419.675 200.088,414.793 200.088,408.794 L200.088,393.085 C200.088,389.261 201.577,385.665 204.281,382.961 L221.237,366.005 C224.677,362.565 227.307,358.308 228.847,353.692 L234.212,337.598 C234.29,337.363 234.509,337.206 234.755,337.206 L239.323,337.206 C247.485,337.206 254.568,331.676 256.546,323.758 L262.716,299.079 C264.219,293.065 262.43,286.605 258.045,282.222 L246.071,270.248 C242.719,266.896 238.26,265.048 233.518,265.048 L222.545,265.048 L191.093,233.596 C187.741,230.244 183.282,228.396 178.54,228.396 L136.72,228.396 C136.586,228.393 136.453,228.393 136.319,228.396 L134.843,228.396 C132.311,228.396 129.928,227.41 128.138,225.618 C124.404,221.883 119.692,219.362 114.513,218.327 L108.46,217.116 L108.46,209.5 C108.46,204.132 112.827,199.764 118.196,199.764 L127.932,199.764 L127.932,200.337 C127.932,205.081 131.778,208.927 136.522,208.927 C141.266,208.927 145.112,205.081 145.112,200.337 L145.112,194.716 C145.166,194.663 145.225,194.617 145.279,194.565 L203.045,136.799 C203.802,136.042 204.809,135.625 205.88,135.625 L209.825,135.625 C219.614,135.625 227.578,127.661 227.578,117.872 L227.578,113.612 C227.578,107.662 224.622,102.14 219.673,98.841 L212.422,94.006 L226.338,90.526 C232.463,88.996 236.741,83.518 236.741,77.199 C236.741,69.627 230.58,63.466 223.008,63.466 L167.735,63.466 C163.971,63.466 160.202,64.355 156.836,66.039 L151.16,68.877 C148.535,65.582 144.489,63.466 139.958,63.466 L125.786,63.466 C118.597,63.466 111.837,66.265 106.753,71.35 L99.869,78.234 L97.301,75.667 C131.179,50.05 173.337,34.832 218.987,34.832 C264.637,34.832 306.795,50.049 340.671,75.666 L334.713,81.624 C331.359,84.978 329.513,89.435 329.513,94.177 L329.513,109.617 C329.513,112.645 328.333,115.492 326.193,117.633 C324.955,118.871 323.424,119.817 321.762,120.372 L305.001,125.959 C297.741,128.379 292.861,135.147 292.861,142.802 L292.861,157.959 C292.861,162.287 294.059,166.333 296.11,169.818 C292.625,172.164 289.569,175.184 287.164,178.794 L279.056,190.954 C276.098,195.39 274.535,200.553 274.535,205.885 L274.535,222.276 C274.535,227.608 276.098,232.771 279.056,237.207 L288.864,251.918 C293.868,259.424 302.24,263.904 311.259,263.904 L334.057,263.904 C338.255,263.904 341.966,266.578 343.292,270.561 L345.34,276.702 C346.997,281.674 347.838,286.853 347.838,292.096 L347.838,298.581 C347.838,307.148 349.031,315.67 351.386,323.911 L366.116,375.47 C329.227,414.643 276.919,439.145 218.989,439.145 Z M161.835,307.085 L139.844,290.592 C137.406,288.763 135.95,285.851 135.95,282.804 L135.95,265.872 L142.715,245.58 L178.542,245.58 C178.693,245.58 178.841,245.641 178.947,245.747 L212.915,279.715 C214.525,281.327 216.711,282.231 218.989,282.231 L233.519,282.231 C233.67,282.231 233.818,282.292 233.924,282.398 L245.898,294.372 C246.04,294.514 246.097,294.723 246.049,294.916 L239.879,319.594 C239.815,319.849 239.587,320.027 239.324,320.027 L234.756,320.027 C227.103,320.027 220.335,324.905 217.913,332.167 L212.548,348.261 C211.849,350.359 210.652,352.294 209.089,353.857 L192.133,370.813 C186.184,376.762 182.908,384.672 182.908,393.085 L182.908,396.458 L174.234,383.448 C173.164,381.844 172.6,379.976 172.6,378.048 L172.6,328.62 C172.601,320.19 168.577,312.139 161.835,307.085 Z M367.909,319.192 C365.994,312.487 365.022,305.552 365.022,298.581 L365.022,292.096 C365.022,285.004 363.885,277.997 361.643,271.269 L359.595,265.128 C355.926,254.121 345.665,246.724 334.061,246.724 L311.263,246.724 C308.001,246.724 304.973,245.103 303.163,242.389 L293.355,227.677 C292.285,226.072 291.719,224.205 291.719,222.277 L291.719,205.886 C291.719,203.957 292.285,202.09 293.355,200.486 L301.463,188.325 C304.337,184.014 309.146,181.44 314.328,181.44 L344.669,181.44 L361.144,192.423 C369.16,197.767 379.495,198.411 388.112,194.102 L393.057,191.629 C394.402,190.957 395.907,190.602 397.411,190.602 L415.768,190.602 C419.28,205.503 421.147,221.032 421.147,236.989 C421.147,283.121 405.604,325.684 379.497,359.741 L367.909,319.192 Z"
        />
        <line
          x1="27.5"
          y1="166"
          x2="409.5"
          y2="166"
          id="Bottom-Line"
          stroke="#60086D"
          stroke-width="14"
          stroke-linecap="square"
          mask="url(#mask-4)"
        />
    </g>
    <path
      d="M646,265 L646,382 L0,382 L0,265 L646,265 Z M631,280 L15,280 L15,367 L631,367 L631,280 Z"
    />
    <g
      transform="translate(32.290500, 287.880000)"
    >
        <path d="M8.378,14.697 L8.378,51.12 C8.52,58.078 6.319,60.492 0,60.279 L0,67.45 C13.845,67.592 17.395,64.042 17.182,50.197 L17.182,14.697 L8.378,14.697 Z M8.378,9.017 L17.182,9.017 L17.182,0 L8.378,0 L8.378,9.017 Z" />
        <path d="M35.5,35.074 L57.865,35.074 L57.865,31.879 C57.865,19.17 53.321,13.916 42.245,13.916 C31.169,13.916 26.625,19.17 26.625,31.879 L26.625,34.435 C26.625,46.647 31.382,51.901 42.387,51.901 C50.055,51.901 54.315,49.913 57.368,45.014 L50.907,41.251 C48.99,43.949 46.86,45.014 43.381,45.014 C38.198,45.014 35.5,41.961 35.5,36.21 L35.5,35.074 Z M35.429,28.968 L35.429,28.187 C35.429,23.288 37.985,20.519 42.458,20.519 C47.073,20.519 49.558,23.217 49.558,28.187 L49.558,28.968 L35.429,28.968 Z" />
        <path d="M66.669,51.12 L75.473,51.12 L75.473,32.305 C75.473,24.353 77.248,21.442 82.005,21.442 C86.407,21.442 88.111,24.211 88.111,31.24 L88.111,51.12 L96.915,51.12 L96.915,30.246 C96.915,25.773 96.631,23.004 95.85,20.945 C94.146,16.33 90.028,13.916 83.78,13.916 C79.094,13.916 76.396,15.052 74.053,17.892 L73.272,14.697 L66.669,14.697 L66.669,51.12 Z" />
        <path d="M103.447,44.943 C105.932,49.629 110.902,51.901 118.499,51.901 C128.865,51.901 133.764,48.28 133.764,40.47 C133.764,36.423 132.628,33.441 130.427,31.879 C128.297,30.388 125.741,29.749 120.061,29.11 C115.091,28.542 113.742,27.69 113.742,25.063 C113.742,22.365 115.659,20.874 119.138,20.874 C122.546,20.874 124.321,21.797 126.238,24.637 L132.77,20.874 C129.788,16.046 125.315,13.916 118.499,13.916 C110.05,13.916 105.364,18.034 105.364,25.489 C105.364,32.163 108.559,34.932 117.576,36.068 C122.262,36.636 122.262,36.636 123.398,37.133 C124.676,37.63 125.386,38.766 125.386,40.328 C125.386,43.452 123.043,44.943 118.144,44.943 C113.813,44.943 112.038,44.162 109.908,41.18 L103.447,44.943 Z" />
        <polygon id="Path" points="142.142 29.607 164.152 29.607 164.152 22.01 142.142 22.01" />
        <path d="M175.512,14.697 L175.512,51.12 C175.654,58.078 173.453,60.492 167.134,60.279 L167.134,67.45 C180.979,67.592 184.529,64.042 184.316,50.197 L184.316,14.697 L175.512,14.697 Z M175.512,9.017 L184.316,9.017 L184.316,0 L175.512,0 L175.512,9.017 Z" />
        <path d="M193.759,35.642 C193.759,47.073 198.445,51.901 209.521,51.901 C220.526,51.901 225.212,47.073 225.212,35.642 L225.212,30.175 C225.212,18.744 220.526,13.916 209.521,13.916 C198.445,13.916 193.759,18.744 193.759,30.175 L193.759,35.642 Z M216.408,35.003 C216.408,41.961 214.42,44.801 209.521,44.801 C204.551,44.801 202.563,41.961 202.563,35.003 L202.563,30.743 C202.563,23.785 204.551,20.945 209.521,20.945 C214.42,20.945 216.408,23.785 216.408,30.743 L216.408,35.003 Z" />
        <path d="M234.584,51.12 L243.388,51.12 L243.388,31.808 C243.388,24.424 245.305,21.442 249.92,21.442 C254.18,21.442 256.026,24.211 256.026,30.885 L256.026,51.12 L264.83,51.12 L264.83,30.246 C264.83,25.773 264.546,23.004 263.765,20.945 C262.061,16.33 257.943,13.916 251.837,13.916 C248.145,13.916 246.512,14.413 243.388,16.543 L243.388,0.426 L234.584,0.426 L234.584,51.12 Z" />
        <path d="M275.054,51.12 L283.858,51.12 L283.858,32.305 C283.858,24.353 285.633,21.442 290.39,21.442 C294.792,21.442 296.496,24.211 296.496,31.24 L296.496,51.12 L305.3,51.12 L305.3,30.246 C305.3,25.773 305.016,23.004 304.235,20.945 C302.531,16.33 298.413,13.916 292.165,13.916 C287.479,13.916 284.781,15.052 282.438,17.892 L281.657,14.697 L275.054,14.697 L275.054,51.12 Z" />
        <path d="M311.832,44.943 C314.317,49.629 319.287,51.901 326.884,51.901 C337.25,51.901 342.149,48.28 342.149,40.47 C342.149,36.423 341.013,33.441 338.812,31.879 C336.682,30.388 334.126,29.749 328.446,29.11 C323.476,28.542 322.127,27.69 322.127,25.063 C322.127,22.365 324.044,20.874 327.523,20.874 C330.931,20.874 332.706,21.797 334.623,24.637 L341.155,20.874 C338.173,16.046 333.7,13.916 326.884,13.916 C318.435,13.916 313.749,18.034 313.749,25.489 C313.749,32.163 316.944,34.932 325.961,36.068 C330.647,36.636 330.647,36.636 331.783,37.133 C333.061,37.63 333.771,38.766 333.771,40.328 C333.771,43.452 331.428,44.943 326.529,44.943 C322.198,44.943 320.423,44.162 318.293,41.18 L311.832,44.943 Z" />
        <path d="M349.107,35.642 C349.107,47.073 353.793,51.901 364.869,51.901 C375.874,51.901 380.56,47.073 380.56,35.642 L380.56,30.175 C380.56,18.744 375.874,13.916 364.869,13.916 C353.793,13.916 349.107,18.744 349.107,30.175 L349.107,35.642 Z M371.756,35.003 C371.756,41.961 369.768,44.801 364.869,44.801 C359.899,44.801 357.911,41.961 357.911,35.003 L357.911,30.743 C357.911,23.785 359.899,20.945 364.869,20.945 C369.768,20.945 371.756,23.785 371.756,30.743 L371.756,35.003 Z" />
        <path d="M389.932,51.12 L398.736,51.12 L398.736,32.305 C398.736,24.353 400.511,21.442 405.268,21.442 C409.67,21.442 411.374,24.211 411.374,31.24 L411.374,51.12 L420.178,51.12 L420.178,30.246 C420.178,25.773 419.894,23.004 419.113,20.945 C417.409,16.33 413.291,13.916 407.043,13.916 C402.357,13.916 399.659,15.052 397.316,17.892 L396.535,14.697 L389.932,14.697 L389.932,51.12 Z" />
        <polygon points="430.828 51.12 440.129 51.12 440.129 42.103 430.828 42.103" />
        <path d="M472.363,41.251 C470.588,43.807 468.671,44.801 465.689,44.801 C461.074,44.801 458.731,41.535 458.731,35.074 L458.731,31.169 C458.731,24.14 460.861,20.945 465.476,20.945 C468.245,20.945 469.878,21.868 471.653,24.637 L478.256,20.945 C475.558,16.188 471.227,13.916 464.766,13.916 C459.583,13.916 455.536,15.691 453.051,19.028 C450.85,21.939 449.927,25.773 449.927,31.95 L449.927,34.222 C449.927,46.221 454.755,51.901 465.05,51.901 C471.511,51.901 475.984,49.7 478.895,44.943 L472.363,41.251 Z" />
        <path d="M483.936,35.642 C483.936,47.073 488.622,51.901 499.698,51.901 C510.703,51.901 515.389,47.073 515.389,35.642 L515.389,30.175 C515.389,18.744 510.703,13.916 499.698,13.916 C488.622,13.916 483.936,18.744 483.936,30.175 L483.936,35.642 Z M506.585,35.003 C506.585,41.961 504.597,44.801 499.698,44.801 C494.728,44.801 492.74,41.961 492.74,35.003 L492.74,30.743 C492.74,23.785 494.728,20.945 499.698,20.945 C504.597,20.945 506.585,23.785 506.585,30.743 L506.585,35.003 Z" id="Shape" />
        <path d="M524.761,51.12 L533.565,51.12 L533.565,32.234 C533.565,24.424 535.127,21.442 539.387,21.442 C543.363,21.442 544.854,24.211 544.854,31.311 L544.854,51.12 L553.658,51.12 L553.658,32.021 C553.658,24.495 555.291,21.442 559.409,21.442 C563.385,21.442 564.947,24.211 564.947,31.169 L564.947,51.12 L573.751,51.12 L573.751,30.246 C573.751,25.844 573.467,23.004 572.757,20.945 C571.053,16.259 567.219,13.916 560.971,13.916 C556.143,13.916 552.948,15.407 550.889,18.602 C548.901,15.62 545.351,13.916 540.949,13.916 C536.973,13.916 533.991,15.194 532.074,17.75 L531.435,14.697 L524.761,14.697 L524.761,51.12 Z" />
    </g>
</svg>